<svg xmlns="http://www.w3.org/2000/svg" viewBox="0 0 64 64" role="img" aria-label="Librowise"><defs><linearGradient id="lw-a" x1="0" y1="0" x2="0" y2="1"><stop offset="0" stop-color="#6366f1"/><stop offset="1" stop-color="#4338ca"/></linearGradient><linearGradient id="lw-b" x1="0" y1="0" x2="0" y2="1"><stop offset="0" stop-color="#818cf8"/><stop offset="1" stop-color="#6366f1"/></linearGradient><linearGradient id="lw-v" x1="0" y1="0" x2="1" y2="1"><stop offset="0" stop-color="#a78bfa"/><stop offset="1" stop-color="#7c3aed"/></linearGradient><linearGradient id="lw-bg" x1="0" y1="0" x2="1" y2="1"><stop offset="0" stop-color="#1e1b4b"/><stop offset="1" stop-color="#3730a3"/></linearGradient></defs><rect width="64" height="64" fill="url(#lw-bg)"/><g transform="translate(12.8 12.8) scale(.6)"><path d="M32 20C25 14.5 15 13.5 5 16v33c10-2.5 20-1.5 27 4z" fill="url(#lw-a)"/><path d="M32 20c7-5.5 17-6.5 27-4v33c-10-2.5-20-1.5-27 4z" fill="url(#lw-b)"/><path d="M10 25c6.5-1.3 12.5-.8 17 1.6M10 32c6.5-1.3 12.5-.8 17 1.6M10 39c6.5-1.3 12.5-.8 17 1.6" stroke="#c7d2fe" stroke-width="1.6" stroke-linecap="round" fill="none" opacity=".75"/><path d="M54 25c-6.5-1.3-12.5-.8-17 1.6M54 32c-6.5-1.3-12.5-.8-17 1.6M54 39c-6.5-1.3-12.5-.8-17 1.6" stroke="#eef2ff" stroke-width="1.6" stroke-linecap="round" fill="none" opacity=".75"/><path d="M27.5 3h9v57l-4.5-3.8-4.5 3.8z" fill="url(#lw-v)"/><path d="M32 7c.5 3.6 2 5.1 5.6 5.6-3.6.5-5.1 2-5.6 5.6-.5-3.6-2-5.1-5.6-5.6 3.6-.5 5.1-2 5.6-5.6z" fill="#fff"/></g></svg>
